{
  "source": "C:\\Users\\Peter\\Desktop\\stuff\\MIUN\\quantitative_research\\video_compression\\videos\\BVI-HD\\BVI-HD_CDVL_videos\\ORIG\\MartialArts_1920x1080_60fps.mp4",
  "output": "C:\\Users\\Peter\\Desktop\\stuff\\MIUN\\quantitative_research\\video_compression\\compressed_videos\\BVI-HD\\h264\\4\\MartialArts_1920x1080_60fps_h264.mp4",
  "codec": "h264",
  "ok": "Input #0, mov,mp4,m4a,3gp,3g2,mj2, from 'C:\\Users\\Peter\\Desktop\\stuff\\MIUN\\quantitative_research\\video_compression\\videos\\BVI-HD\\BVI-HD_CDVL_videos\\ORIG\\MartialArts_1920x1080_60fps.mp4':\n  Metadata:\n    major_brand     : isom\n    minor_version   : 512\n    compatible_brands: isomiso2avc1mp41\n    encoder         : Lavf54.28.101\n  Duration: 00:00:05.00, start: 0.000000, bitrate: 120609 kb/s\n  Stream #0:0[0x1](und): Video: h264 (High 4:4:4 Predictive) (avc1 / 0x31637661), yuv420p(progressive), 1920x1080, 120605 kb/s, 60 fps, 60 tbr, 60 tbn (default)\n    Metadata:\n      handler_name    : VideoHandler\n      vendor_id       : [0][0][0][0]\n[out#0/mp4 @ 0000019588c19ac0] Codec AVOption b:a (set bitrate (in bits/s)) has not been used for any stream. The most likely reason is either wrong type (e.g. a video option with no video streams) or that it is a private option of some decoder which was not actually used for any stream.\nStream mapping:\n  Stream #0:0 -> #0:0 (h264 (native) -> h264 (libx264))\nPress [q] to stop, [?] for help\n[libx264 @ 00000195894c0980] using cpu capabilities: MMX2 SSE2Fast SSSE3 SSE4.2 AVX FMA3 BMI2 AVX2\n[libx264 @ 00000195894c0980] profile High, level 5.0, 4:2:0, 8-bit\n[libx264 @ 00000195894c0980] 264 - core 165 r3222 b35605a - H.264/MPEG-4 AVC codec - Copyleft 2003-2025 - http://www.videolan.org/x264.html - options: cabac=1 ref=5 deblock=1:0:0 analyse=0x3:0x113 me=hex subme=8 psy=1 psy_rd=1.00:0.00 mixed_ref=1 me_range=16 chroma_me=1 trellis=2 8x8dct=1 cqm=0 deadzone=21,11 fast_pskip=1 chroma_qp_offset=-2 threads=18 lookahead_threads=3 sliced_threads=0 nr=0 decimate=1 interlaced=0 bluray_compat=0 constrained_intra=0 bframes=3 b_pyramid=2 b_adapt=1 b_bias=0 direct=3 weightb=1 open_gop=0 weightp=2 keyint=250 keyint_min=25 scenecut=40 intra_refresh=0 rc_lookahead=50 rc=cbr mbtree=1 bitrate=4000 ratetol=1.0 qcomp=0.60 qpmin=0 qpmax=69 qpstep=4 vbv_maxrate=4000 vbv_bufsize=4000 nal_hrd=none filler=0 ip_ratio=1.40 aq=1:1.00\nOutput #0, mp4, to 'C:\\Users\\Peter\\Desktop\\stuff\\MIUN\\quantitative_research\\video_compression\\compressed_videos\\BVI-HD\\h264\\4\\MartialArts_1920x1080_60fps_h264.mp4':\n  Metadata:\n    major_brand     : isom\n    minor_version   : 512\n    compatible_brands: isomiso2avc1mp41\n    encoder         : Lavf62.3.100\n  Stream #0:0(und): Video: h264 (avc1 / 0x31637661), yuv420p(tv, progressive), 1920x1080, q=2-31, 4000 kb/s, 60 fps, 15360 tbn (default)\n    Metadata:\n      encoder         : Lavc62.11.100 libx264\n      handler_name    : VideoHandler\n      vendor_id       : [0][0][0][0]\n    Side data:\n      cpb: bitrate max/min/avg: 4000000/0/4000000 buffer size: 4000000 vbv_delay: N/A\nframe=    0 fps=0.0 q=0.0 size=       0KiB time=N/A bitrate=N/A speed=N/A elapsed=0:00:00.51    \nframe=    8 fps=7.7 q=32.0 size=       0KiB time=00:00:00.03 bitrate=  11.5kbits/s speed=0.032x elapsed=0:00:01.04    \nframe=   38 fps= 24 q=30.0 size=       0KiB time=00:00:00.58 bitrate=   0.7kbits/s speed=0.367x elapsed=0:00:01.59    \nframe=   71 fps= 33 q=31.0 size=     512KiB time=00:00:01.08 bitrate=3872.0kbits/s speed=0.504x elapsed=0:00:02.14    \nframe=   97 fps= 35 q=31.0 size=     512KiB time=00:00:01.53 bitrate=2735.7kbits/s speed=0.551x elapsed=0:00:02.78    \nframe=  132 fps= 39 q=31.0 size=     768KiB time=00:00:02.06 bitrate=3044.4kbits/s speed=0.616x elapsed=0:00:03.35    \nframe=  157 fps= 40 q=31.0 size=    1024KiB time=00:00:02.53 bitrate=3311.4kbits/s speed=0.647x elapsed=0:00:03.91    \nframe=  177 fps= 39 q=31.0 size=    1280KiB time=00:00:02.91 bitrate=3595.2kbits/s speed=0.64x elapsed=0:00:04.55    \nframe=  206 fps= 40 q=31.0 size=    1536KiB time=00:00:03.31 bitrate=3794.0kbits/s speed=0.644x elapsed=0:00:05.14    \nframe=  241 fps= 42 q=31.0 size=    1792KiB time=00:00:03.91 bitrate=3748.2kbits/s speed=0.684x elapsed=0:00:05.72    \nframe=  277 fps= 44 q=31.0 size=    2048KiB time=00:00:04.58 bitrate=3660.6kbits/s speed=0.73x elapsed=0:00:06.28    \n[mp4 @ 0000019588c2a600] Starting second pass: moving the moov atom to the beginning of the file\n[out#0/mp4 @ 0000019588c19ac0] video:2474KiB audio:0KiB subtitle:0KiB other streams:0KiB global headers:0KiB muxing overhead: 0.176766%\nframe=  300 fps= 46 q=-1.0 Lsize=    2479KiB time=00:00:04.96 bitrate=4088.6kbits/s speed=0.758x elapsed=0:00:06.55    \n[libx264 @ 00000195894c0980] frame I:2     Avg QP:21.71  size: 38399\n[libx264 @ 00000195894c0980] frame P:75    Avg QP:22.77  size: 15321\n[libx264 @ 00000195894c0980] frame B:223   Avg QP:21.89  size:  5862\n[libx264 @ 00000195894c0980] consecutive B-frames:  0.7%  0.0%  2.0% 97.3%\n[libx264 @ 00000195894c0980] mb I  I16..4: 26.8% 71.4%  1.8%\n[libx264 @ 00000195894c0980] mb P  I16..4:  7.1% 22.9%  0.3%  P16..4: 26.3%  3.1%  1.4%  0.0%  0.0%    skip:38.9%\n[libx264 @ 00000195894c0980] mb B  I16..4:  1.2%  1.4%  0.0%  B16..8: 27.9%  2.8%  0.2%  direct: 6.1%  skip:60.5%  L0:52.1% L1:45.6% BI: 2.3%\n[libx264 @ 00000195894c0980] 8x8 transform intra:71.0% inter:92.6%\n[libx264 @ 00000195894c0980] direct mvs  spatial:95.5% temporal:4.5%\n[libx264 @ 00000195894c0980] coded y,uvDC,uvAC intra: 19.8% 21.0% 1.3% inter: 2.3% 11.4% 0.0%\n[libx264 @ 00000195894c0980] i16 v,h,dc,p: 41% 32% 13% 14%\n[libx264 @ 00000195894c0980] i8 v,h,dc,ddl,ddr,vr,hd,vl,hu: 19% 16% 46%  2%  3%  4%  3%  3%  3%\n[libx264 @ 00000195894c0980] i4 v,h,dc,ddl,ddr,vr,hd,vl,hu: 24% 13% 12%  6% 14% 11%  9%  5%  4%\n[libx264 @ 00000195894c0980] i8c dc,h,v,p: 60% 20% 18%  2%\n[libx264 @ 00000195894c0980] Weighted P-Frames: Y:0.0% UV:0.0%\n[libx264 @ 00000195894c0980] ref P L0: 42.9% 11.4% 29.7%  8.2%  7.8%\n[libx264 @ 00000195894c0980] ref B L0: 57.8% 29.6% 11.0%  1.6%\n[libx264 @ 00000195894c0980] ref B L1: 85.5% 14.5%\n[libx264 @ 00000195894c0980] kb/s:4052.96\n",
  "seconds": 6.769688129425049,
  "probe_out": {}
}